# xmcd
#
# Track frame offsets:
#	150
#	2042
#	16260
#	20310
#	27210
#	43060
#	45415
#	59777
#	66322
#	82577
#	96862
#	121360
#	123695
#	139337
#	147885
#	162335
#	165087
#	173237
#	200520
#	211962
#
# Disc length: 2946 seconds
# Revision: 6
# Processed by: cddbd v1.5.2PL0 Copyright (c) Steve Scherf et al.
# Submitted via: dBpowerAMP V12.0
#
DISCID=0e0b8014
DTITLE=Marty Stuart - The Pilgrim [HDCD Decoded]
DYEAR=1999
DGENRE=Country;Folk;[HDCD Decoded];Instrumental
TTITLE0=Intro (Instrumental)
TTITLE1=Sometimes The Pleasure's Worth The Pain
TTITLE2=The Pilgrim (Act 1)
TTITLE3=Harlan County
TTITLE4=Reasons
TTITLE5=Love Can Go To..
TTITLE6=Red, Red Wine And Cheatin' Songs
TTITLE7=Truckstop
TTITLE8=Hobo's Prayer
TTITLE9=Goin' Nowhere Fast
TTITLE10=The Observations Of A Crow
TTITLE11=Intermission (Instrumental)
TTITLE12=The Greatest Love Of All Time
TTITLE13=The Greatest Love Of All Time Reprise (Instrumental)
TTITLE14=Draggin' Around These Chains Of Love
TTITLE15=The Pilgrim (Act 2)
TTITLE16=Redemption
TTITLE17=The Pilgrim (Act 3)
TTITLE18=Outro
TTITLE19=Mr. John Henry, Steel Driving Man (Instrumental)
EXTD=
EXTT0=
EXTT1=
EXTT2=
EXTT3=
EXTT4=
EXTT5=
EXTT6=
EXTT7=
EXTT8=
EXTT9=
EXTT10=
EXTT11=
EXTT12=
EXTT13=
EXTT14=
EXTT15=
EXTT16=
EXTT17=
EXTT18=
EXTT19=
PLAYORDER=
